#tb 0: 1/25
0,          9,          9,        1,  1244160, 0x5b49e0c0
0,         10,         10,        1,  1244160, 0x76ba6bab
0,         11,         11,        1,  1244160, 0x0298cb8d
0,         12,         12,        1,  1244160, 0x9c81759a
0,         13,         13,        1,  1244160, 0xa239d1ae
0,         14,         14,        1,  1244160, 0x3e95ada9
0,         15,         15,        1,  1244160, 0x8b87e8f8
0,         16,         16,        1,  1244160, 0x64f89653
0,         17,         17,        1,  1244160, 0x58e5d12e
0,         18,         18,        1,  1244160, 0x38b4003a
0,         19,         19,        1,  1244160, 0xc005c29c
0,         20,         20,        1,  1244160, 0x10c0c60d
0,         21,         21,        1,  1244160, 0x1b550998
0,         22,         22,        1,  1244160, 0x7aacf6ab
0,         23,         23,        1,  1244160, 0xeb205d98
0,         24,         24,        1,  1244160, 0x6ad2134c
0,         25,         25,        1,  1244160, 0x8aea4e56
0,         26,         26,        1,  1244160, 0x0d910a6b
0,         27,         27,        1,  1244160, 0x749ae307
0,         28,         28,        1,  1244160, 0x8ff7af3c
0,         29,         29,        1,  1244160, 0x9ba51b91
0,         30,         30,        1,  1244160, 0xad476514
0,         31,         31,        1,  1244160, 0x674481d6
0,         32,         32,        1,  1244160, 0x0937e677
0,         33,         33,        1,  1244160, 0x6c2c53ee
0,         34,         34,        1,  1244160, 0x524a164e
0,         35,         35,        1,  1244160, 0x77a405ab
0,         36,         36,        1,  1244160, 0xaa6b47c4
0,         37,         37,        1,  1244160, 0x0b5ab556
0,         38,         38,        1,  1244160, 0xbe1edab9
